<svg xmlns="http://www.w3.org/2000/svg" xmlns:xlink="http://www.w3.org/1999/xlink" viewBox="0 0 375 374.999991" preserveAspectRatio="xMidYMid meet"><defs><g/><clipPath id="457c93ebb2"><rect x="0" width="331" y="0" height="219"/></clipPath><clipPath id="baea0baa57"><path d="M 266 196 L 351 196 L 351 268 L 266 268 Z M 266 196 " clip-rule="nonzero"/></clipPath><clipPath id="af8292a3a7"><path d="M 259.835938 206.285156 L 345.382812 190.46875 L 358.472656 261.269531 L 272.921875 277.085938 Z M 259.835938 206.285156 " clip-rule="nonzero"/></clipPath><clipPath id="b37d5277b2"><path d="M 259.835938 206.285156 L 345.382812 190.46875 L 358.472656 261.269531 L 272.921875 277.085938 Z M 259.835938 206.285156 " clip-rule="nonzero"/></clipPath><clipPath id="2a15297259"><path d="M 311 209 L 338 209 L 338 238 L 311 238 Z M 311 209 " clip-rule="nonzero"/></clipPath><clipPath id="436e93f8cf"><path d="M 319.199219 205.082031 L 342.554688 223.910156 L 323.726562 247.265625 L 300.371094 228.433594 Z M 319.199219 205.082031 " clip-rule="nonzero"/></clipPath><clipPath id="aace3f032e"><path d="M 319.199219 205.082031 L 342.554688 223.910156 L 323.726562 247.265625 L 300.371094 228.433594 Z M 319.199219 205.082031 " clip-rule="nonzero"/></clipPath><clipPath id="37207954c7"><rect x="0" width="241" y="0" height="223"/></clipPath></defs><g transform="matrix(1, 0, 0, 1, 20, 25)"><g clip-path="url(#457c93ebb2)"><g fill="#027e7e" fill-opacity="1"><g transform="translate(0.830398, 156.663179)"><g><path d="M 10.015625 0 L 10.015625 -40.484375 C 10.015625 -46.703125 11.410156 -52.144531 14.203125 -56.8125 C 16.992188 -61.476562 20.859375 -65.113281 25.796875 -67.71875 C 30.734375 -70.320312 36.359375 -71.625 42.671875 -71.625 C 49.078125 -71.625 54.726562 -70.320312 59.625 -67.71875 C 64.519531 -65.113281 68.359375 -61.476562 71.140625 -56.8125 C 73.929688 -52.144531 75.328125 -46.703125 75.328125 -40.484375 L 75.328125 0 L 62.703125 0 L 62.703125 -40.34375 C 62.703125 -44.550781 61.765625 -48.1875 59.890625 -51.25 C 58.015625 -54.3125 55.546875 -56.664062 52.484375 -58.3125 C 49.421875 -59.957031 46.148438 -60.78125 42.671875 -60.78125 C 39.191406 -60.78125 35.921875 -59.957031 32.859375 -58.3125 C 29.796875 -56.664062 27.328125 -54.3125 25.453125 -51.25 C 23.578125 -48.1875 22.640625 -44.550781 22.640625 -40.34375 L 22.640625 0 Z M 10.015625 0 "/></g></g></g><g fill="#027e7e" fill-opacity="1"><g transform="translate(74.786072, 156.663179)"><g><path d="M 45.5625 0 C 37.875 0 31.054688 -1.4375 25.109375 -4.3125 C 19.160156 -7.195312 14.515625 -11.269531 11.171875 -16.53125 C 7.835938 -21.789062 6.171875 -27.941406 6.171875 -34.984375 C 6.171875 -41.941406 7.585938 -48.1875 10.421875 -53.71875 C 13.265625 -59.25 17.203125 -63.613281 22.234375 -66.8125 C 27.265625 -70.019531 33.117188 -71.625 39.796875 -71.625 C 47.023438 -71.625 53.039062 -70.066406 57.84375 -66.953125 C 62.644531 -63.847656 66.234375 -59.664062 68.609375 -54.40625 C 70.984375 -49.144531 72.171875 -43.269531 72.171875 -36.78125 C 72.171875 -35.769531 72.148438 -34.710938 72.109375 -33.609375 C 72.066406 -32.515625 71.953125 -31.554688 71.765625 -30.734375 L 19.625 -30.734375 C 20.082031 -26.429688 21.5 -22.796875 23.875 -19.828125 C 26.25 -16.859375 29.289062 -14.617188 33 -13.109375 C 36.707031 -11.597656 40.800781 -10.84375 45.28125 -10.84375 L 63.53125 -10.84375 L 63.53125 0 Z M 19.484375 -39.65625 L 59.421875 -39.65625 C 59.421875 -41.394531 59.234375 -43.242188 58.859375 -45.203125 C 58.492188 -47.171875 57.851562 -49.09375 56.9375 -50.96875 C 56.03125 -52.851562 54.820312 -54.546875 53.3125 -56.046875 C 51.800781 -57.554688 49.925781 -58.769531 47.6875 -59.6875 C 45.445312 -60.601562 42.816406 -61.0625 39.796875 -61.0625 C 36.585938 -61.0625 33.769531 -60.441406 31.34375 -59.203125 C 28.925781 -57.972656 26.847656 -56.328125 25.109375 -54.265625 C 23.367188 -52.210938 22.039062 -49.90625 21.125 -47.34375 C 20.21875 -44.78125 19.671875 -42.21875 19.484375 -39.65625 Z M 19.484375 -39.65625 "/></g></g></g><g fill="#027e7e" fill-opacity="1"><g transform="translate(141.606813, 156.663179)"><g><path d="M 42.8125 1.640625 C 36.5 1.640625 30.847656 0.335938 25.859375 -2.265625 C 20.878906 -4.867188 16.992188 -8.503906 14.203125 -13.171875 C 11.410156 -17.835938 10.015625 -23.28125 10.015625 -29.5 L 10.015625 -69.984375 L 22.78125 -69.984375 L 22.78125 -29.640625 C 22.78125 -25.429688 23.691406 -21.796875 25.515625 -18.734375 C 27.347656 -15.671875 29.796875 -13.3125 32.859375 -11.65625 C 35.921875 -10.007812 39.191406 -9.1875 42.671875 -9.1875 C 46.242188 -9.1875 49.5625 -10.007812 52.625 -11.65625 C 55.6875 -13.3125 58.15625 -15.671875 60.03125 -18.734375 C 61.90625 -21.796875 62.84375 -25.429688 62.84375 -29.640625 L 62.84375 -69.984375 L 75.609375 -69.984375 L 75.609375 -29.5 C 75.609375 -23.28125 74.1875 -17.835938 71.34375 -13.171875 C 68.507812 -8.503906 64.625 -4.867188 59.6875 -2.265625 C 54.75 0.335938 49.125 1.640625 42.8125 1.640625 Z M 42.8125 1.640625 "/></g></g></g><g fill="#027e7e" fill-opacity="1"><g transform="translate(215.8369, 156.663179)"><g><path d="M 9.609375 0 L 9.609375 -50.078125 C 9.609375 -56.304688 11.367188 -61.179688 14.890625 -64.703125 C 18.410156 -68.222656 23.28125 -69.984375 29.5 -69.984375 L 43.90625 -69.984375 L 43.90625 -59.140625 L 31.828125 -59.140625 C 28.816406 -59.140625 26.460938 -58.269531 24.765625 -56.53125 C 23.078125 -54.789062 22.234375 -52.367188 22.234375 -49.265625 L 22.234375 0 Z M 9.609375 0 "/></g></g></g><g fill="#027e7e" fill-opacity="1"><g transform="translate(250.001574, 156.663179)"><g><path d="M 42.953125 1.640625 C 35.816406 1.640625 29.503906 0.0195312 24.015625 -3.21875 C 18.523438 -6.46875 14.175781 -10.859375 10.96875 -16.390625 C 7.769531 -21.929688 6.171875 -28.128906 6.171875 -34.984375 C 6.171875 -41.847656 7.769531 -48.046875 10.96875 -53.578125 C 14.175781 -59.117188 18.523438 -63.507812 24.015625 -66.75 C 29.503906 -70 35.816406 -71.625 42.953125 -71.625 C 50.085938 -71.625 56.421875 -70 61.953125 -66.75 C 67.484375 -63.507812 71.828125 -59.144531 74.984375 -53.65625 C 78.140625 -48.164062 79.71875 -41.941406 79.71875 -34.984375 C 79.71875 -28.128906 78.140625 -21.929688 74.984375 -16.390625 C 71.828125 -10.859375 67.484375 -6.46875 61.953125 -3.21875 C 56.421875 0.0195312 50.085938 1.640625 42.953125 1.640625 Z M 42.953125 -9.1875 C 47.796875 -9.1875 52 -10.328125 55.5625 -12.609375 C 59.132812 -14.898438 61.925781 -17.988281 63.9375 -21.875 C 65.957031 -25.769531 66.96875 -30.140625 66.96875 -34.984375 C 66.96875 -39.835938 65.957031 -44.207031 63.9375 -48.09375 C 61.925781 -51.976562 59.132812 -55.0625 55.5625 -57.34375 C 52 -59.632812 47.796875 -60.78125 42.953125 -60.78125 C 38.191406 -60.78125 34.003906 -59.632812 30.390625 -57.34375 C 26.773438 -55.0625 23.960938 -51.976562 21.953125 -48.09375 C 19.941406 -44.207031 18.9375 -39.835938 18.9375 -34.984375 C 18.9375 -30.140625 19.941406 -25.769531 21.953125 -21.875 C 23.960938 -17.988281 26.773438 -14.898438 30.390625 -12.609375 C 34.003906 -10.328125 38.191406 -9.1875 42.953125 -9.1875 Z M 42.953125 -9.1875 "/></g></g></g></g></g><g clip-path="url(#baea0baa57)"><g clip-path="url(#af8292a3a7)"><g clip-path="url(#b37d5277b2)"><path fill="#027e7e" d="M 325.992188 266.929688 L 320.21875 267.996094 C 318.128906 256.6875 311.65625 251.667969 307.496094 249.558594 C 307.441406 250.125 307.363281 250.683594 307.253906 251.238281 C 307.148438 251.792969 307.011719 252.34375 306.851562 252.886719 C 306.691406 253.429688 306.5 253.960938 306.289062 254.484375 C 306.074219 255.011719 305.835938 255.523438 305.574219 256.023438 C 305.308594 256.523438 305.019531 257.011719 304.710938 257.484375 C 304.398438 257.957031 304.066406 258.414062 303.710938 258.855469 C 303.355469 259.292969 302.976562 259.714844 302.582031 260.117188 C 302.183594 260.523438 301.769531 260.90625 301.332031 261.269531 C 300.898438 261.632812 300.449219 261.972656 299.980469 262.289062 C 299.511719 262.609375 299.03125 262.90625 298.535156 263.175781 C 298.039062 263.449219 297.527344 263.695312 297.007812 263.917969 C 296.488281 264.136719 295.957031 264.335938 295.417969 264.503906 C 294.878906 264.675781 294.332031 264.820312 293.777344 264.933594 C 293.222656 265.050781 292.664062 265.140625 292.101562 265.203125 C 291.539062 265.265625 290.976562 265.300781 290.410156 265.308594 C 289.84375 265.316406 289.277344 265.292969 288.714844 265.246094 C 288.152344 265.199219 287.589844 265.121094 287.035156 265.019531 C 286.476562 264.917969 285.925781 264.789062 285.382812 264.628906 C 284.839844 264.472656 284.304688 264.292969 283.777344 264.082031 C 283.25 263.875 282.738281 263.640625 282.234375 263.378906 C 281.730469 263.121094 281.242188 262.839844 280.765625 262.53125 C 280.289062 262.222656 279.832031 261.894531 279.386719 261.542969 C 278.945312 261.191406 278.519531 260.820312 278.113281 260.425781 C 277.703125 260.03125 277.316406 259.621094 276.953125 259.1875 C 276.585938 258.757812 276.238281 258.308594 275.917969 257.84375 C 275.59375 257.378906 275.292969 256.902344 275.019531 256.40625 C 274.742188 255.914062 274.492188 255.40625 274.265625 254.886719 C 274.039062 254.367188 273.835938 253.839844 273.660156 253.300781 C 273.488281 252.765625 273.339844 252.21875 273.214844 251.664062 C 273.09375 251.113281 273 250.554688 272.933594 249.992188 C 272.867188 249.429688 272.824219 248.867188 272.8125 248.300781 C 272.800781 247.734375 272.816406 247.171875 272.859375 246.605469 C 271.613281 245.621094 270.523438 244.488281 269.585938 243.207031 C 268.652344 241.921875 267.90625 240.535156 267.351562 239.050781 C 266.796875 237.5625 266.449219 236.027344 266.316406 234.445312 C 266.179688 232.863281 266.261719 231.292969 266.554688 229.730469 C 266.851562 228.171875 267.351562 226.679688 268.054688 225.257812 C 268.761719 223.835938 269.644531 222.53125 270.703125 221.351562 C 271.765625 220.171875 272.96875 219.152344 274.308594 218.300781 C 275.648438 217.449219 277.078125 216.792969 278.597656 216.332031 C 278.683594 215.398438 278.847656 214.476562 279.085938 213.570312 C 279.324219 212.660156 279.636719 211.777344 280.015625 210.917969 C 280.398438 210.058594 280.847656 209.238281 281.359375 208.453125 C 281.875 207.664062 282.449219 206.925781 283.082031 206.234375 C 283.714844 205.539062 284.402344 204.902344 285.136719 204.320312 C 285.875 203.734375 286.652344 203.214844 287.472656 202.761719 C 288.292969 202.304688 289.148438 201.914062 290.03125 201.597656 C 290.914062 201.277344 291.816406 201.03125 292.742188 200.859375 C 294.851562 200.460938 296.964844 200.457031 299.074219 200.847656 C 301.1875 201.238281 303.160156 202 304.988281 203.128906 C 305.226562 202.835938 305.476562 202.554688 305.734375 202.28125 C 305.996094 202.007812 306.261719 201.742188 306.539062 201.484375 C 306.8125 201.226562 307.097656 200.980469 307.390625 200.742188 C 307.683594 200.503906 307.980469 200.277344 308.289062 200.058594 C 308.597656 199.839844 308.910156 199.628906 309.230469 199.433594 C 309.550781 199.234375 309.878906 199.046875 310.210938 198.867188 C 310.542969 198.691406 310.882812 198.527344 311.226562 198.371094 C 311.570312 198.214844 311.917969 198.074219 312.269531 197.941406 C 312.621094 197.808594 312.980469 197.6875 313.339844 197.578125 C 313.699219 197.46875 314.066406 197.371094 314.433594 197.285156 C 314.800781 197.199219 315.167969 197.125 315.539062 197.066406 C 315.914062 197.003906 316.285156 196.953125 316.660156 196.917969 C 317.035156 196.878906 317.414062 196.855469 317.789062 196.84375 C 318.164062 196.828125 318.542969 196.828125 318.917969 196.839844 C 319.296875 196.851562 319.671875 196.875 320.046875 196.914062 C 320.421875 196.949219 320.796875 196.996094 321.167969 197.058594 C 321.539062 197.117188 321.910156 197.191406 322.277344 197.277344 C 322.644531 197.359375 323.007812 197.457031 323.371094 197.566406 C 323.730469 197.671875 324.085938 197.792969 324.441406 197.925781 C 324.792969 198.054688 325.144531 198.199219 325.488281 198.351562 C 325.832031 198.507812 326.167969 198.671875 326.503906 198.847656 C 326.835938 199.023438 327.164062 199.210938 327.484375 199.410156 C 327.804688 199.605469 328.121094 199.8125 328.425781 200.03125 C 328.734375 200.25 329.035156 200.476562 329.328125 200.714844 C 329.621094 200.953125 329.90625 201.199219 330.183594 201.453125 C 330.457031 201.710938 330.726562 201.976562 330.984375 202.25 C 331.246094 202.523438 331.496094 202.804688 331.738281 203.09375 C 331.976562 203.382812 332.210938 203.679688 332.429688 203.984375 C 332.652344 204.289062 332.863281 204.601562 333.066406 204.921875 C 333.269531 205.238281 333.460938 205.5625 333.640625 205.894531 C 333.820312 206.226562 333.988281 206.5625 334.148438 206.902344 C 334.308594 207.246094 334.453125 207.59375 334.589844 207.945312 C 335.636719 208.015625 336.667969 208.183594 337.683594 208.445312 C 338.699219 208.707031 339.683594 209.054688 340.636719 209.496094 C 341.589844 209.933594 342.496094 210.453125 343.351562 211.054688 C 344.210938 211.660156 345.007812 212.332031 345.746094 213.082031 C 346.480469 213.828125 347.144531 214.636719 347.734375 215.5 C 348.324219 216.367188 348.832031 217.28125 349.257812 218.242188 C 349.679688 219.199219 350.015625 220.1875 350.261719 221.207031 C 350.507812 222.226562 350.660156 223.261719 350.71875 224.308594 C 350.777344 225.355469 350.742188 226.398438 350.609375 227.441406 C 350.480469 228.480469 350.257812 229.5 349.941406 230.5 C 349.628906 231.5 349.226562 232.464844 348.738281 233.394531 C 348.246094 234.320312 347.679688 235.195312 347.03125 236.019531 C 346.382812 236.847656 345.664062 237.605469 344.878906 238.300781 C 344.09375 238.996094 343.253906 239.613281 342.355469 240.15625 C 341.457031 240.699219 340.519531 241.15625 339.539062 241.527344 C 338.558594 241.902344 337.550781 242.183594 336.519531 242.371094 L 323.136719 244.847656 L 322.070312 239.074219 L 335.453125 236.597656 C 336.167969 236.464844 336.863281 236.269531 337.542969 236.003906 C 338.21875 235.742188 338.867188 235.414062 339.480469 235.027344 C 340.097656 234.640625 340.671875 234.203125 341.203125 233.707031 C 341.734375 233.210938 342.214844 232.671875 342.644531 232.082031 C 343.074219 231.496094 343.445312 230.875 343.757812 230.21875 C 344.070312 229.5625 344.316406 228.882812 344.5 228.179688 C 344.683594 227.476562 344.800781 226.761719 344.847656 226.035156 C 344.894531 225.308594 344.875 224.585938 344.785156 223.863281 C 344.695312 223.144531 344.539062 222.4375 344.3125 221.746094 C 344.089844 221.050781 343.804688 220.386719 343.453125 219.75 C 343.105469 219.113281 342.699219 218.515625 342.234375 217.953125 C 341.773438 217.394531 341.261719 216.878906 340.703125 216.417969 C 340.140625 215.953125 339.542969 215.546875 338.90625 215.195312 C 338.269531 214.847656 337.605469 214.558594 336.914062 214.335938 C 336.21875 214.109375 335.515625 213.953125 334.792969 213.863281 C 334.070312 213.773438 333.347656 213.75 332.621094 213.796875 L 330.144531 213.960938 L 329.574219 211.546875 C 329.304688 210.414062 328.871094 209.34375 328.277344 208.34375 C 327.683594 207.339844 326.953125 206.449219 326.089844 205.667969 C 325.226562 204.886719 324.265625 204.253906 323.207031 203.765625 C 322.148438 203.277344 321.042969 202.953125 319.886719 202.800781 C 318.734375 202.648438 317.582031 202.671875 316.433594 202.867188 C 315.285156 203.0625 314.191406 203.425781 313.15625 203.957031 C 312.117188 204.484375 311.179688 205.15625 310.347656 205.96875 C 309.511719 206.78125 308.816406 207.699219 308.261719 208.722656 L 306.464844 212.027344 L 303.695312 209.484375 C 302.855469 208.707031 301.921875 208.074219 300.890625 207.578125 C 299.859375 207.082031 298.78125 206.746094 297.652344 206.574219 C 296.523438 206.398438 295.390625 206.394531 294.257812 206.554688 C 293.128906 206.71875 292.046875 207.042969 291.011719 207.53125 C 289.976562 208.015625 289.035156 208.640625 288.1875 209.40625 C 287.335938 210.171875 286.621094 211.046875 286.03125 212.027344 C 285.445312 213.007812 285.011719 214.050781 284.734375 215.160156 C 284.457031 216.269531 284.347656 217.394531 284.40625 218.535156 L 284.546875 221.195312 L 281.816406 221.609375 C 281.722656 221.621094 281.632812 221.636719 281.539062 221.652344 C 280.398438 221.863281 279.3125 222.238281 278.285156 222.777344 C 277.257812 223.316406 276.332031 223.996094 275.511719 224.816406 C 274.6875 225.632812 274.007812 226.554688 273.460938 227.582031 C 272.917969 228.605469 272.539062 229.691406 272.324219 230.828125 C 272.109375 231.96875 272.066406 233.117188 272.199219 234.269531 C 272.328125 235.421875 272.628906 236.53125 273.09375 237.59375 C 273.558594 238.65625 274.171875 239.625 274.933594 240.503906 C 275.691406 241.382812 276.566406 242.125 277.550781 242.738281 L 279.257812 243.800781 L 278.882812 245.777344 C 278.804688 246.191406 278.75 246.609375 278.71875 247.027344 C 278.683594 247.449219 278.675781 247.867188 278.691406 248.289062 C 278.703125 248.710938 278.742188 249.128906 278.800781 249.546875 C 278.859375 249.964844 278.941406 250.375 279.046875 250.785156 C 279.152344 251.191406 279.28125 251.59375 279.429688 251.988281 C 279.578125 252.382812 279.75 252.765625 279.941406 253.140625 C 280.132812 253.515625 280.34375 253.878906 280.574219 254.234375 C 280.804688 254.585938 281.054688 254.921875 281.324219 255.25 C 281.59375 255.574219 281.878906 255.882812 282.179688 256.175781 C 282.484375 256.46875 282.800781 256.742188 283.132812 257.003906 C 283.46875 257.261719 283.8125 257.5 284.171875 257.71875 C 284.53125 257.941406 284.902344 258.140625 285.28125 258.320312 C 285.664062 258.5 286.054688 258.660156 286.453125 258.796875 C 286.851562 258.933594 287.253906 259.046875 287.667969 259.140625 C 288.078125 259.234375 288.492188 259.300781 288.910156 259.347656 C 289.328125 259.394531 289.75 259.421875 290.171875 259.421875 C 290.59375 259.421875 291.011719 259.398438 291.433594 259.355469 C 291.851562 259.308594 292.265625 259.242188 292.675781 259.148438 C 293.089844 259.058594 293.492188 258.945312 293.894531 258.808594 C 294.292969 258.675781 294.683594 258.515625 295.0625 258.339844 C 295.445312 258.160156 295.816406 257.960938 296.175781 257.742188 C 296.535156 257.523438 296.882812 257.285156 297.21875 257.027344 C 297.550781 256.769531 297.871094 256.496094 298.171875 256.203125 C 298.476562 255.914062 298.761719 255.605469 299.035156 255.28125 C 299.304688 254.957031 299.554688 254.621094 299.785156 254.269531 C 300.019531 253.917969 300.234375 253.554688 300.425781 253.179688 C 300.617188 252.804688 300.789062 252.421875 300.941406 252.027344 C 301.089844 251.632812 301.21875 251.234375 301.328125 250.824219 C 301.433594 250.417969 301.519531 250.007812 301.578125 249.589844 C 301.640625 249.171875 301.679688 248.753906 301.695312 248.332031 C 301.710938 247.910156 301.703125 247.492188 301.671875 247.070312 C 301.640625 246.648438 301.585938 246.234375 301.511719 245.820312 L 300.726562 241.574219 L 304.960938 242.40625 C 305.660156 242.542969 322.125 246.003906 325.992188 266.929688 Z M 325.992188 266.929688 " fill-opacity="1" fill-rule="nonzero"/></g></g></g><g clip-path="url(#2a15297259)"><g clip-path="url(#436e93f8cf)"><g clip-path="url(#aace3f032e)"><path fill="#027e7e" d="M 320.972656 237.078125 C 324.726562 236.675781 327.992188 236.148438 330.621094 235.191406 C 332.269531 234.589844 333.667969 233.816406 334.78125 232.796875 C 334.78125 232.796875 334.785156 232.792969 334.789062 232.789062 C 334.804688 232.773438 334.820312 232.761719 334.835938 232.746094 C 334.839844 232.742188 334.84375 232.738281 334.847656 232.734375 C 334.867188 232.71875 334.882812 232.703125 334.902344 232.683594 L 334.90625 232.679688 C 335.183594 232.414062 335.445312 232.132812 335.683594 231.835938 C 336.324219 231.039062 336.828125 230.113281 337.179688 229.042969 C 337.523438 228.011719 337.726562 226.84375 337.785156 225.515625 C 337.773438 224.9375 337.707031 224.386719 337.589844 223.867188 L 337.585938 223.867188 C 336.570312 219.445312 331.761719 217.378906 327.207031 219.636719 L 327.203125 219.636719 C 326.773438 219.847656 326.347656 220.097656 325.925781 220.390625 C 326.113281 219.9375 326.261719 219.488281 326.375 219.046875 L 326.375 219.042969 C 327.789062 213.578125 323.949219 208.917969 318.617188 209.851562 C 318.546875 209.863281 318.472656 209.875 318.402344 209.890625 C 318.375 209.898438 318.347656 209.902344 318.324219 209.910156 L 318.308594 209.914062 C 318.292969 209.917969 318.273438 209.925781 318.253906 209.929688 C 316.527344 210.398438 315.144531 211.070312 314.050781 211.929688 C 313.066406 212.703125 312.3125 213.625 311.742188 214.691406 C 311.617188 214.925781 311.503906 215.167969 311.398438 215.417969 C 311.738281 214.957031 312.136719 214.542969 312.589844 214.167969 L 312.683594 214.09375 C 313.746094 213.246094 315.019531 212.691406 316.320312 212.308594 C 316.335938 212.304688 316.355469 212.300781 316.371094 212.296875 L 316.382812 212.292969 C 316.394531 212.289062 316.40625 212.285156 316.417969 212.28125 C 316.46875 212.269531 316.519531 212.261719 316.570312 212.25 C 318.230469 211.925781 319.925781 212.226562 321.265625 213.320312 C 322.125 214.019531 322.734375 214.964844 323.070312 216.015625 C 323.460938 217.242188 323.464844 218.550781 323.183594 219.796875 L 323.152344 219.9375 C 323.066406 220.296875 322.957031 220.648438 322.828125 220.988281 L 321.316406 224.984375 L 324.773438 222.480469 C 325.078125 222.257812 325.398438 222.054688 325.726562 221.875 L 325.886719 221.792969 C 327.003906 221.207031 328.257812 220.878906 329.535156 220.9375 C 330.625 220.992188 331.6875 221.328125 332.582031 221.96875 C 333.625 222.714844 334.328125 223.792969 334.652344 225.019531 L 334.679688 225.121094 C 334.78125 225.53125 334.839844 225.953125 334.859375 226.371094 C 334.847656 227.421875 334.730469 228.480469 334.4375 229.488281 L 334.421875 229.542969 C 334.160156 230.425781 333.765625 231.246094 333.207031 231.976562 L 333.167969 232.027344 C 332.980469 232.269531 332.773438 232.5 332.558594 232.71875 L 332.554688 232.722656 C 332.539062 232.738281 332.527344 232.75 332.511719 232.765625 C 332.507812 232.769531 332.503906 232.769531 332.5 232.773438 C 332.488281 232.789062 332.476562 232.800781 332.460938 232.8125 C 332.460938 232.8125 332.460938 232.8125 332.460938 232.816406 L 332.453125 232.820312 C 331.414062 233.824219 330.097656 234.523438 328.753906 235.042969 L 328.585938 235.109375 C 327.289062 235.597656 325.917969 235.945312 324.558594 236.230469 C 322.855469 236.582031 321.121094 236.835938 319.390625 237.054688 L 319.128906 237.089844 C 316.691406 237.394531 314.242188 237.640625 311.796875 237.898438 L 311.800781 237.910156 C 315.089844 237.617188 318.167969 237.382812 320.972656 237.078125 Z M 320.972656 237.078125 " fill-opacity="1" fill-rule="nonzero"/></g></g></g><g transform="matrix(1, 0, 0, 1, 20, 88)"><g clip-path="url(#37207954c7)"><g fill="#027e7e" fill-opacity="1"><g transform="translate(1.177911, 177.717318)"><g><path d="M 41.578125 -71.359375 C 45.234375 -71.359375 48.914062 -70.832031 52.625 -69.78125 C 56.332031 -68.726562 59.238281 -67.46875 61.34375 -66 C 62.53125 -65.175781 63.125 -64.171875 63.125 -62.984375 C 63.125 -61.703125 62.390625 -60.144531 60.921875 -58.3125 C 58.722656 -59.957031 55.910156 -61.398438 52.484375 -62.640625 C 49.054688 -63.878906 45.375 -64.5 41.4375 -64.5 C 36.40625 -64.5 31.921875 -63.375 27.984375 -61.125 C 24.054688 -58.882812 20.972656 -55.546875 18.734375 -51.109375 C 16.492188 -46.671875 15.375 -41.253906 15.375 -34.859375 C 15.375 -28.816406 16.445312 -23.578125 18.59375 -19.140625 C 20.738281 -14.703125 23.820312 -11.289062 27.84375 -8.90625 C 31.875 -6.53125 36.632812 -5.34375 42.125 -5.34375 C 46.425781 -5.34375 50.40625 -6.03125 54.0625 -7.40625 C 57.71875 -8.78125 60.554688 -10.289062 62.578125 -11.9375 C 63.210938 -11.019531 63.734375 -10.171875 64.140625 -9.390625 C 64.554688 -8.617188 64.765625 -7.957031 64.765625 -7.40625 C 64.765625 -6.40625 64.125 -5.398438 62.84375 -4.390625 C 61.84375 -3.472656 60.265625 -2.554688 58.109375 -1.640625 C 55.960938 -0.734375 53.445312 0.015625 50.5625 0.609375 C 47.6875 1.210938 44.644531 1.515625 41.4375 1.515625 C 34.394531 1.515625 28.3125 0.0507812 23.1875 -2.875 C 18.0625 -5.800781 14.148438 -9.988281 11.453125 -15.4375 C 8.753906 -20.882812 7.40625 -27.359375 7.40625 -34.859375 C 7.40625 -42.453125 8.867188 -48.988281 11.796875 -54.46875 C 14.722656 -59.957031 18.769531 -64.144531 23.9375 -67.03125 C 29.113281 -69.914062 34.992188 -71.359375 41.578125 -71.359375 Z M 41.578125 -71.359375 "/></g></g></g><g fill="#027e7e" fill-opacity="1"><g transform="translate(57.433323, 177.717318)"><g><path d="M 82.0625 -7.140625 C 82.601562 -6.222656 82.875 -5.210938 82.875 -4.109375 C 82.875 -2.742188 82.421875 -1.648438 81.515625 -0.828125 C 80.773438 -0.179688 79.742188 0.296875 78.421875 0.609375 C 77.097656 0.929688 75.65625 1.09375 74.09375 1.09375 C 70.894531 1.09375 68.332031 0.382812 66.40625 -1.03125 C 64.488281 -2.445312 63.210938 -4.710938 62.578125 -7.828125 C 59.828125 -4.804688 56.460938 -2.378906 52.484375 -0.546875 C 48.503906 1.285156 44.179688 2.203125 39.515625 2.203125 C 33.296875 2.203125 27.757812 0.71875 22.90625 -2.25 C 18.0625 -5.226562 14.265625 -9.484375 11.515625 -15.015625 C 8.773438 -20.554688 7.40625 -27.078125 7.40625 -34.578125 C 7.40625 -42.078125 8.773438 -48.640625 11.515625 -54.265625 C 14.265625 -59.890625 18.109375 -64.234375 23.046875 -67.296875 C 27.992188 -70.367188 33.625 -71.90625 39.9375 -71.90625 C 44.226562 -71.90625 48.316406 -71.035156 52.203125 -69.296875 C 56.097656 -67.554688 59.414062 -65.269531 62.15625 -62.4375 L 62.15625 -66 C 62.15625 -67.644531 62.5 -68.765625 63.1875 -69.359375 C 63.875 -69.953125 65.132812 -70.25 66.96875 -70.25 L 69.984375 -69.984375 L 69.984375 -13.03125 C 69.984375 -10.289062 70.4375 -8.320312 71.34375 -7.125 C 72.257812 -5.9375 73.769531 -5.34375 75.875 -5.34375 C 77.15625 -5.34375 78.34375 -5.503906 79.4375 -5.828125 C 80.539062 -6.148438 81.414062 -6.585938 82.0625 -7.140625 Z M 40.484375 -4.671875 C 44.691406 -4.671875 48.691406 -5.582031 52.484375 -7.40625 C 56.285156 -9.238281 59.507812 -11.664062 62.15625 -14.6875 L 62.15625 -55.03125 C 59.507812 -58.039062 56.265625 -60.460938 52.421875 -62.296875 C 48.578125 -64.128906 44.550781 -65.046875 40.34375 -65.046875 C 35.488281 -65.046875 31.164062 -63.804688 27.375 -61.328125 C 23.582031 -58.859375 20.632812 -55.3125 18.53125 -50.6875 C 16.425781 -46.070312 15.375 -40.75 15.375 -34.71875 C 15.375 -28.769531 16.46875 -23.507812 18.65625 -18.9375 C 20.851562 -14.363281 23.847656 -10.84375 27.640625 -8.375 C 31.441406 -5.90625 35.722656 -4.671875 40.484375 -4.671875 Z M 40.484375 -4.671875 "/></g></g></g><g fill="#027e7e" fill-opacity="1"><g transform="translate(129.879627, 177.717318)"><g><path d="M 50.90625 -68.46875 C 52.007812 -67.832031 52.5625 -66.828125 52.5625 -65.453125 C 52.5625 -63.992188 52.101562 -62.484375 51.1875 -60.921875 C 49.90625 -61.742188 48.367188 -62.40625 46.578125 -62.90625 C 44.796875 -63.414062 42.851562 -63.671875 40.75 -63.671875 C 37.09375 -63.671875 33.640625 -62.660156 30.390625 -60.640625 C 27.140625 -58.628906 24.460938 -55.9375 22.359375 -52.5625 L 22.359375 0.140625 C 21.992188 0.234375 20.941406 0.28125 19.203125 0.28125 C 17.285156 0.28125 16.03125 0.03125 15.4375 -0.46875 C 14.84375 -0.976562 14.546875 -2.101562 14.546875 -3.84375 L 14.546875 -55.84375 C 14.546875 -58.863281 14.0625 -61.015625 13.09375 -62.296875 C 12.132812 -63.578125 10.5625 -64.21875 8.375 -64.21875 C 5.988281 -64.21875 4.066406 -63.757812 2.609375 -62.84375 C 2.148438 -63.945312 1.921875 -64.953125 1.921875 -65.859375 C 1.921875 -67.421875 2.609375 -68.566406 3.984375 -69.296875 C 5.628906 -70.210938 7.773438 -70.671875 10.421875 -70.671875 C 13.898438 -70.671875 16.597656 -69.820312 18.515625 -68.125 C 20.441406 -66.4375 21.632812 -63.765625 22.09375 -60.109375 C 24.195312 -63.398438 26.960938 -65.984375 30.390625 -67.859375 C 33.828125 -69.734375 37.554688 -70.671875 41.578125 -70.671875 C 45.785156 -70.671875 48.894531 -69.9375 50.90625 -68.46875 Z M 50.90625 -68.46875 "/></g></g></g><g fill="#027e7e" fill-opacity="1"><g transform="translate(170.630129, 177.717318)"><g><path d="M 41.984375 -4.671875 C 46.648438 -4.671875 50.90625 -5.492188 54.75 -7.140625 C 58.59375 -8.785156 61.796875 -10.707031 64.359375 -12.90625 C 65.910156 -11.34375 66.6875 -9.832031 66.6875 -8.375 C 66.6875 -7 66.046875 -5.804688 64.765625 -4.796875 C 62.660156 -3.066406 59.550781 -1.46875 55.4375 0 C 51.320312 1.46875 46.75 2.203125 41.71875 2.203125 C 34.757812 2.203125 28.695312 0.757812 23.53125 -2.125 C 18.363281 -5.007812 14.382812 -9.195312 11.59375 -14.6875 C 8.800781 -20.175781 7.40625 -26.757812 7.40625 -34.4375 C 7.40625 -42.394531 8.957031 -49.1875 12.0625 -54.8125 C 15.175781 -60.445312 19.316406 -64.703125 24.484375 -67.578125 C 29.660156 -70.460938 35.265625 -71.90625 41.296875 -71.90625 C 46.703125 -71.90625 51.4375 -70.988281 55.5 -69.15625 C 59.570312 -67.320312 62.707031 -64.757812 64.90625 -61.46875 C 67.101562 -58.175781 68.203125 -54.472656 68.203125 -50.359375 C 68.203125 -43.410156 65.457031 -38.242188 59.96875 -34.859375 C 54.476562 -31.472656 46.703125 -29.78125 36.640625 -29.78125 C 29.410156 -29.78125 22.226562 -30.507812 15.09375 -31.96875 C 15.457031 -25.9375 16.804688 -20.882812 19.140625 -16.8125 C 21.472656 -12.738281 24.582031 -9.695312 28.46875 -7.6875 C 32.351562 -5.675781 36.859375 -4.671875 41.984375 -4.671875 Z M 41.296875 -65.3125 C 37.003906 -65.3125 32.9375 -64.328125 29.09375 -62.359375 C 25.25 -60.398438 22.046875 -57.382812 19.484375 -53.3125 C 16.921875 -49.238281 15.457031 -44.179688 15.09375 -38.140625 C 22.039062 -36.773438 29.269531 -36.09375 36.78125 -36.09375 C 44.363281 -36.09375 50.210938 -37.164062 54.328125 -39.3125 C 58.453125 -41.457031 60.515625 -45.1875 60.515625 -50.5 C 60.515625 -53.332031 59.710938 -55.867188 58.109375 -58.109375 C 56.503906 -60.347656 54.238281 -62.109375 51.3125 -63.390625 C 48.382812 -64.671875 45.046875 -65.3125 41.296875 -65.3125 Z M 41.296875 -65.3125 "/></g></g></g></g></g></svg>