<svg xmlns="http://www.w3.org/2000/svg" xmlns:xlink="http://www.w3.org/1999/xlink" width="500" zoomAndPan="magnify" viewBox="0 0 375 374.999991" height="500" preserveAspectRatio="xMidYMid meet" version="1.0"><defs><clipPath id="ea04575c9f"><path d="M 11.023438 11.023438 L 363.976562 11.023438 L 363.976562 363.976562 L 11.023438 363.976562 Z M 11.023438 11.023438 " clip-rule="nonzero"/></clipPath><clipPath id="d0c6bb1e05"><path d="M 187.5 11.023438 C 90.035156 11.023438 11.023438 90.035156 11.023438 187.5 C 11.023438 284.964844 90.035156 363.976562 187.5 363.976562 C 284.964844 363.976562 363.976562 284.964844 363.976562 187.5 C 363.976562 90.035156 284.964844 11.023438 187.5 11.023438 Z M 187.5 11.023438 " clip-rule="nonzero"/></clipPath><clipPath id="fca4de46c3"><path d="M 0.0234375 0.0234375 L 352.976562 0.0234375 L 352.976562 352.976562 L 0.0234375 352.976562 Z M 0.0234375 0.0234375 " clip-rule="nonzero"/></clipPath><clipPath id="bc1fe7166a"><path d="M 176.5 0.0234375 C 79.035156 0.0234375 0.0234375 79.035156 0.0234375 176.5 C 0.0234375 273.964844 79.035156 352.976562 176.5 352.976562 C 273.964844 352.976562 352.976562 273.964844 352.976562 176.5 C 352.976562 79.035156 273.964844 0.0234375 176.5 0.0234375 Z M 176.5 0.0234375 " clip-rule="nonzero"/></clipPath><clipPath id="3999d95bf1"><rect x="0" width="353" y="0" height="353"/></clipPath><clipPath id="bce1a98a6e"><path d="M 20 21 L 329 21 L 329 281 L 20 281 Z M 20 21 " clip-rule="nonzero"/></clipPath><clipPath id="22863ec6d0"><path d="M -2.972656 55.996094 L 309.269531 -1.730469 L 356.695312 254.808594 L 44.453125 312.535156 Z M -2.972656 55.996094 " clip-rule="nonzero"/></clipPath><clipPath id="95f676a3d1"><path d="M -2.972656 55.996094 L 309.269531 -1.730469 L 356.695312 254.808594 L 44.453125 312.535156 Z M -2.972656 55.996094 " clip-rule="nonzero"/></clipPath><clipPath id="2429f6e8df"><path d="M 184 68 L 281 68 L 281 172 L 184 172 Z M 184 68 " clip-rule="nonzero"/></clipPath><clipPath id="70df003856"><path d="M 213.179688 51.605469 L 296.738281 118.976562 L 227.496094 204.855469 L 143.9375 137.484375 Z M 213.179688 51.605469 " clip-rule="nonzero"/></clipPath><clipPath id="a53a6173d4"><path d="M 213.179688 51.605469 L 296.738281 118.976562 L 227.496094 204.855469 L 143.9375 137.484375 Z M 213.179688 51.605469 " clip-rule="nonzero"/></clipPath><clipPath id="66fb7ff471"><rect x="0" width="355" y="0" height="313"/></clipPath></defs><g clip-path="url(#ea04575c9f)"><g clip-path="url(#d0c6bb1e05)"><g transform="matrix(1, 0, 0, 1, 11, 11)"><g clip-path="url(#3999d95bf1)"><g clip-path="url(#fca4de46c3)"><g clip-path="url(#bc1fe7166a)"><path fill="#027e7e" d="M 0.0234375 0.0234375 L 352.976562 0.0234375 L 352.976562 352.976562 L 0.0234375 352.976562 Z M 0.0234375 0.0234375 " fill-opacity="1" fill-rule="nonzero"/></g></g></g></g></g></g><g transform="matrix(1, 0, 0, 1, 14, 39)"><g clip-path="url(#66fb7ff471)"><g clip-path="url(#bce1a98a6e)"><g clip-path="url(#22863ec6d0)"><g clip-path="url(#95f676a3d1)"><path fill="#ffffff" d="M 237.910156 276.792969 L 216.890625 280.675781 C 209.277344 239.503906 185.707031 221.222656 170.566406 213.554688 C 170.371094 215.605469 170.078125 217.644531 169.683594 219.667969 C 169.292969 221.691406 168.800781 223.691406 168.214844 225.664062 C 167.625 227.640625 166.945312 229.582031 166.164062 231.492188 C 165.386719 233.398438 164.519531 235.265625 163.558594 237.089844 C 162.597656 238.910156 161.554688 240.683594 160.417969 242.40625 C 159.285156 244.128906 158.074219 245.789062 156.777344 247.390625 C 155.480469 248.996094 154.109375 250.53125 152.664062 252 C 151.21875 253.46875 149.707031 254.863281 148.125 256.183594 C 146.542969 257.503906 144.902344 258.746094 143.199219 259.90625 C 141.496094 261.066406 139.738281 262.140625 137.929688 263.128906 C 136.125 264.121094 134.273438 265.019531 132.375 265.828125 C 130.480469 266.632812 128.550781 267.347656 126.585938 267.96875 C 124.617188 268.585938 122.628906 269.109375 120.609375 269.535156 C 118.59375 269.960938 116.5625 270.285156 114.515625 270.511719 C 112.464844 270.738281 110.410156 270.863281 108.351562 270.890625 C 106.289062 270.917969 104.234375 270.839844 102.179688 270.667969 C 100.125 270.492188 98.085938 270.214844 96.058594 269.84375 C 94.03125 269.46875 92.03125 268.996094 90.050781 268.425781 C 88.070312 267.855469 86.121094 267.191406 84.207031 266.429688 C 82.289062 265.667969 80.417969 264.816406 78.585938 263.875 C 76.753906 262.929688 74.96875 261.898438 73.238281 260.78125 C 71.507812 259.664062 69.835938 258.464844 68.21875 257.183594 C 66.605469 255.902344 65.058594 254.546875 63.574219 253.117188 C 62.09375 251.683594 60.683594 250.183594 59.351562 248.613281 C 58.015625 247.042969 56.757812 245.410156 55.582031 243.71875 C 54.40625 242.027344 53.316406 240.28125 52.3125 238.480469 C 51.304688 236.683594 50.390625 234.839844 49.566406 232.949219 C 48.742188 231.0625 48.007812 229.140625 47.371094 227.179688 C 46.734375 225.21875 46.195312 223.234375 45.75 221.21875 C 45.308594 219.207031 44.964844 217.179688 44.71875 215.132812 C 44.472656 213.085938 44.328125 211.03125 44.285156 208.972656 C 44.242188 206.910156 44.296875 204.855469 44.453125 202.800781 C 42.195312 201.015625 40.070312 199.089844 38.074219 197.015625 C 36.078125 194.941406 34.234375 192.742188 32.539062 190.417969 C 30.84375 188.09375 29.316406 185.664062 27.953125 183.128906 C 26.589844 180.59375 25.402344 177.980469 24.398438 175.285156 C 23.390625 172.589844 22.570312 169.839844 21.941406 167.03125 C 21.308594 164.226562 20.871094 161.386719 20.625 158.523438 C 20.378906 155.65625 20.332031 152.785156 20.480469 149.910156 C 20.625 147.039062 20.96875 144.1875 21.503906 141.359375 C 22.039062 138.535156 22.761719 135.757812 23.679688 133.027344 C 24.59375 130.300781 25.6875 127.648438 26.964844 125.070312 C 28.242188 122.492188 29.6875 120.011719 31.300781 117.628906 C 32.914062 115.246094 34.683594 112.988281 36.609375 110.847656 C 38.53125 108.707031 40.589844 106.707031 42.785156 104.847656 C 44.980469 102.988281 47.292969 101.289062 49.722656 99.742188 C 52.148438 98.199219 54.671875 96.828125 57.285156 95.628906 C 59.902344 94.429688 62.585938 93.410156 65.339844 92.578125 C 65.5 90.878906 65.730469 89.1875 66.03125 87.507812 C 66.328125 85.828125 66.695312 84.160156 67.128906 82.511719 C 67.5625 80.859375 68.0625 79.226562 68.625 77.617188 C 69.191406 76.003906 69.820312 74.421875 70.511719 72.859375 C 71.207031 71.300781 71.960938 69.769531 72.777344 68.269531 C 73.59375 66.769531 74.46875 65.308594 75.402344 63.878906 C 76.335938 62.449219 77.328125 61.0625 78.375 59.710938 C 79.421875 58.363281 80.519531 57.058594 81.671875 55.800781 C 82.824219 54.539062 84.023438 53.328125 85.273438 52.164062 C 86.523438 51 87.816406 49.890625 89.15625 48.832031 C 90.496094 47.773438 91.875 46.769531 93.296875 45.824219 C 94.714844 44.875 96.171875 43.988281 97.664062 43.15625 C 99.15625 42.328125 100.679688 41.558594 102.230469 40.851562 C 103.785156 40.144531 105.367188 39.5 106.972656 38.921875 C 108.578125 38.34375 110.203125 37.828125 111.851562 37.378906 C 113.496094 36.933594 115.160156 36.550781 116.839844 36.238281 C 120.648438 35.515625 124.492188 35.152344 128.371094 35.144531 C 132.246094 35.136719 136.09375 35.488281 139.90625 36.195312 C 143.71875 36.898438 147.433594 37.949219 151.050781 39.34375 C 154.667969 40.742188 158.128906 42.457031 161.425781 44.492188 C 162.300781 43.4375 163.210938 42.410156 164.152344 41.410156 C 165.097656 40.414062 166.070312 39.449219 167.074219 38.511719 C 168.082031 37.578125 169.113281 36.679688 170.179688 35.8125 C 171.242188 34.945312 172.332031 34.113281 173.449219 33.316406 C 174.570312 32.519531 175.710938 31.761719 176.878906 31.039062 C 178.046875 30.316406 179.234375 29.632812 180.445312 28.988281 C 181.660156 28.34375 182.890625 27.742188 184.140625 27.175781 C 185.390625 26.613281 186.660156 26.089844 187.945312 25.605469 C 189.230469 25.125 190.527344 24.683594 191.84375 24.285156 C 193.15625 23.890625 194.480469 23.535156 195.816406 23.222656 C 197.152344 22.914062 198.5 22.644531 199.851562 22.421875 C 201.207031 22.199219 202.566406 22.019531 203.933594 21.882812 C 205.296875 21.746094 206.667969 21.65625 208.039062 21.609375 C 209.410156 21.5625 210.78125 21.5625 212.152344 21.605469 C 213.527344 21.648438 214.894531 21.734375 216.261719 21.867188 C 217.625 22 218.988281 22.175781 220.339844 22.394531 C 221.695312 22.617188 223.042969 22.878906 224.378906 23.1875 C 225.71875 23.496094 227.042969 23.847656 228.359375 24.242188 C 229.671875 24.636719 230.972656 25.070312 232.257812 25.550781 C 233.546875 26.027344 234.8125 26.550781 236.066406 27.109375 C 237.320312 27.671875 238.550781 28.273438 239.765625 28.914062 C 240.976562 29.554688 242.167969 30.234375 243.339844 30.953125 C 244.507812 31.675781 245.652344 32.429688 246.773438 33.222656 C 247.890625 34.015625 248.984375 34.84375 250.050781 35.710938 C 251.117188 36.574219 252.152344 37.472656 253.160156 38.40625 C 254.167969 39.335938 255.144531 40.300781 256.089844 41.296875 C 257.035156 42.289062 257.945312 43.316406 258.824219 44.371094 C 259.703125 45.425781 260.546875 46.507812 261.351562 47.617188 C 262.160156 48.726562 262.929688 49.859375 263.664062 51.019531 C 264.398438 52.179688 265.09375 53.363281 265.753906 54.566406 C 266.410156 55.773438 267.027344 56.996094 267.605469 58.242188 C 268.179688 59.488281 268.71875 60.75 269.214844 62.027344 C 271.113281 62.164062 273.003906 62.382812 274.886719 62.6875 C 276.765625 62.992188 278.628906 63.382812 280.476562 63.855469 C 282.320312 64.328125 284.140625 64.886719 285.9375 65.523438 C 287.730469 66.160156 289.496094 66.878906 291.226562 67.675781 C 292.957031 68.472656 294.648438 69.347656 296.300781 70.296875 C 297.949219 71.246094 299.554688 72.269531 301.117188 73.363281 C 302.675781 74.457031 304.183594 75.621094 305.636719 76.851562 C 307.089844 78.082031 308.484375 79.378906 309.824219 80.734375 C 311.160156 82.089844 312.433594 83.507812 313.644531 84.976562 C 314.855469 86.449219 315.996094 87.972656 317.066406 89.550781 C 318.140625 91.125 319.136719 92.746094 320.0625 94.410156 C 320.988281 96.074219 321.835938 97.777344 322.609375 99.519531 C 323.382812 101.261719 324.074219 103.035156 324.683594 104.839844 C 325.296875 106.644531 325.824219 108.472656 326.273438 110.328125 C 326.71875 112.179688 327.082031 114.046875 327.359375 115.933594 C 327.636719 117.816406 327.828125 119.710938 327.933594 121.613281 C 328.042969 123.515625 328.0625 125.417969 327.996094 127.324219 C 327.929688 129.226562 327.78125 131.125 327.542969 133.015625 C 327.308594 134.90625 326.984375 136.78125 326.578125 138.644531 C 326.171875 140.503906 325.683594 142.34375 325.113281 144.164062 C 324.539062 145.980469 323.886719 147.769531 323.152344 149.527344 C 322.417969 151.285156 321.605469 153.007812 320.71875 154.691406 C 319.828125 156.375 318.863281 158.019531 317.828125 159.617188 C 316.789062 161.214844 315.683594 162.761719 314.503906 164.261719 C 313.328125 165.757812 312.085938 167.199219 310.777344 168.585938 C 309.46875 169.972656 308.101562 171.296875 306.675781 172.558594 C 305.246094 173.820312 303.765625 175.015625 302.230469 176.144531 C 300.695312 177.273438 299.113281 178.328125 297.484375 179.316406 C 295.851562 180.300781 294.179688 181.210938 292.46875 182.046875 C 290.753906 182.878906 289.007812 183.636719 287.226562 184.3125 C 285.445312 184.988281 283.636719 185.582031 281.800781 186.097656 C 279.96875 186.609375 278.113281 187.039062 276.238281 187.386719 L 227.511719 196.394531 L 223.625 175.371094 L 272.351562 166.363281 C 273.652344 166.121094 274.9375 165.820312 276.207031 165.460938 C 277.476562 165.097656 278.726562 164.679688 279.957031 164.199219 C 281.1875 163.71875 282.394531 163.183594 283.574219 162.589844 C 284.753906 161.996094 285.902344 161.347656 287.019531 160.648438 C 288.136719 159.945312 289.222656 159.191406 290.269531 158.386719 C 291.316406 157.582031 292.324219 156.730469 293.289062 155.832031 C 294.257812 154.929688 295.179688 153.988281 296.054688 153 C 296.933594 152.015625 297.761719 150.988281 298.542969 149.921875 C 299.324219 148.859375 300.050781 147.757812 300.730469 146.625 C 301.40625 145.488281 302.027344 144.328125 302.59375 143.132812 C 303.160156 141.941406 303.667969 140.722656 304.121094 139.484375 C 304.574219 138.242188 304.964844 136.980469 305.296875 135.703125 C 305.628906 134.425781 305.902344 133.136719 306.109375 131.832031 C 306.320312 130.527344 306.46875 129.21875 306.554688 127.898438 C 306.640625 126.582031 306.667969 125.261719 306.628906 123.941406 C 306.589844 122.621094 306.488281 121.308594 306.328125 119.996094 C 306.164062 118.6875 305.941406 117.386719 305.652344 116.097656 C 305.367188 114.808594 305.023438 113.535156 304.617188 112.277344 C 304.210938 111.019531 303.746094 109.785156 303.222656 108.574219 C 302.699219 107.359375 302.121094 106.175781 301.488281 105.015625 C 300.851562 103.859375 300.164062 102.734375 299.421875 101.640625 C 298.683594 100.546875 297.890625 99.492188 297.050781 98.472656 C 296.207031 97.457031 295.320312 96.480469 294.386719 95.546875 C 293.457031 94.613281 292.480469 93.722656 291.460938 92.882812 C 290.445312 92.039062 289.390625 91.246094 288.296875 90.503906 C 287.207031 89.761719 286.082031 89.074219 284.921875 88.4375 C 283.765625 87.800781 282.582031 87.222656 281.371094 86.699219 C 280.15625 86.171875 278.921875 85.707031 277.667969 85.300781 C 276.410156 84.894531 275.136719 84.546875 273.847656 84.257812 C 272.558594 83.972656 271.261719 83.746094 269.949219 83.582031 C 268.640625 83.417969 267.324219 83.316406 266.003906 83.277344 C 264.683594 83.238281 263.363281 83.261719 262.046875 83.347656 L 253.027344 83.941406 L 250.945312 75.144531 C 250.457031 73.09375 249.816406 71.089844 249.027344 69.136719 C 248.234375 67.183594 247.300781 65.296875 246.226562 63.484375 C 245.152344 61.667969 243.949219 59.945312 242.613281 58.316406 C 241.277344 56.683594 239.828125 55.160156 238.261719 53.746094 C 236.699219 52.332031 235.035156 51.046875 233.277344 49.882812 C 231.515625 48.722656 229.679688 47.699219 227.765625 46.8125 C 225.851562 45.929688 223.882812 45.191406 221.855469 44.605469 C 219.832031 44.015625 217.773438 43.585938 215.683594 43.308594 C 213.59375 43.03125 211.496094 42.914062 209.386719 42.953125 C 207.277344 42.992188 205.183594 43.191406 203.105469 43.546875 C 201.027344 43.902344 198.988281 44.414062 196.988281 45.078125 C 194.984375 45.742188 193.046875 46.550781 191.167969 47.507812 C 189.289062 48.464844 187.492188 49.558594 185.777344 50.789062 C 184.0625 52.015625 182.453125 53.367188 180.941406 54.835938 C 179.429688 56.308594 178.039062 57.886719 176.769531 59.566406 C 175.496094 61.25 174.359375 63.015625 173.351562 64.871094 L 166.8125 76.902344 L 156.730469 67.636719 C 155.207031 66.234375 153.589844 64.949219 151.878906 63.789062 C 150.167969 62.625 148.378906 61.59375 146.511719 60.699219 C 144.648438 59.800781 142.726562 59.042969 140.75 58.433594 C 138.773438 57.820312 136.765625 57.355469 134.71875 57.039062 C 132.671875 56.722656 130.617188 56.5625 128.546875 56.550781 C 126.476562 56.542969 124.417969 56.683594 122.371094 56.980469 C 120.320312 57.273438 118.304688 57.71875 116.324219 58.3125 C 114.339844 58.90625 112.414062 59.640625 110.539062 60.519531 C 108.664062 61.398438 106.867188 62.414062 105.144531 63.558594 C 103.421875 64.703125 101.792969 65.972656 100.253906 67.359375 C 98.71875 68.746094 97.296875 70.238281 95.980469 71.835938 C 94.667969 73.433594 93.476562 75.121094 92.410156 76.894531 C 91.347656 78.671875 90.417969 80.515625 89.628906 82.425781 C 88.835938 84.339844 88.191406 86.300781 87.691406 88.308594 C 87.1875 90.316406 86.839844 92.347656 86.640625 94.410156 C 86.441406 96.46875 86.394531 98.53125 86.5 100.597656 L 87.007812 110.277344 L 77.058594 111.785156 C 76.726562 111.832031 76.390625 111.878906 76.058594 111.941406 C 73.992188 112.324219 71.964844 112.859375 69.980469 113.546875 C 67.996094 114.230469 66.070312 115.0625 64.210938 116.039062 C 62.351562 117.015625 60.574219 118.125 58.878906 119.367188 C 57.1875 120.609375 55.597656 121.972656 54.105469 123.457031 C 52.617188 124.9375 51.25 126.523438 50 128.210938 C 48.75 129.902344 47.632812 131.671875 46.648438 133.53125 C 45.664062 135.386719 44.828125 137.304688 44.132812 139.289062 C 43.4375 141.269531 42.894531 143.292969 42.503906 145.359375 C 42.113281 147.421875 41.878906 149.503906 41.800781 151.605469 C 41.726562 153.703125 41.804688 155.796875 42.042969 157.882812 C 42.28125 159.972656 42.671875 162.027344 43.21875 164.058594 C 43.765625 166.085938 44.460938 168.0625 45.304688 169.984375 C 46.152344 171.910156 47.132812 173.757812 48.257812 175.535156 C 49.378906 177.308594 50.628906 178.992188 52.003906 180.582031 C 53.378906 182.167969 54.867188 183.644531 56.460938 185.007812 C 58.058594 186.375 59.75 187.609375 61.535156 188.71875 L 67.746094 192.589844 L 66.382812 199.777344 C 66.242188 200.53125 66.121094 201.289062 66.019531 202.046875 C 65.917969 202.808594 65.839844 203.570312 65.78125 204.335938 C 65.722656 205.097656 65.683594 205.863281 65.667969 206.628906 C 65.648438 207.394531 65.65625 208.164062 65.679688 208.929688 C 65.703125 209.695312 65.75 210.460938 65.816406 211.222656 C 65.886719 211.988281 65.972656 212.746094 66.082031 213.507812 C 66.191406 214.265625 66.320312 215.019531 66.472656 215.773438 C 66.621094 216.523438 66.792969 217.269531 66.984375 218.011719 C 67.175781 218.753906 67.386719 219.492188 67.617188 220.222656 C 67.851562 220.953125 68.101562 221.675781 68.375 222.394531 C 68.644531 223.109375 68.9375 223.820312 69.246094 224.519531 C 69.554688 225.21875 69.886719 225.914062 70.234375 226.59375 C 70.582031 227.277344 70.949219 227.949219 71.335938 228.613281 C 71.71875 229.277344 72.121094 229.925781 72.542969 230.566406 C 72.964844 231.207031 73.402344 231.835938 73.859375 232.453125 C 74.3125 233.070312 74.785156 233.671875 75.273438 234.265625 C 75.761719 234.855469 76.269531 235.429688 76.789062 235.996094 C 77.308594 236.558594 77.84375 237.105469 78.394531 237.640625 C 78.945312 238.171875 79.507812 238.691406 80.085938 239.191406 C 80.667969 239.695312 81.257812 240.183594 81.863281 240.652344 C 82.46875 241.121094 83.085938 241.574219 83.71875 242.011719 C 84.347656 242.445312 84.988281 242.867188 85.644531 243.265625 C 86.296875 243.667969 86.960938 244.050781 87.632812 244.414062 C 88.308594 244.78125 88.992188 245.125 89.683594 245.453125 C 90.378906 245.777344 91.082031 246.085938 91.789062 246.375 C 92.5 246.664062 93.21875 246.933594 93.941406 247.183594 C 94.667969 247.429688 95.398438 247.660156 96.136719 247.867188 C 96.875 248.078125 97.617188 248.265625 98.363281 248.433594 C 99.113281 248.601562 99.863281 248.75 100.621094 248.878906 C 101.375 249.003906 102.132812 249.109375 102.894531 249.195312 C 103.65625 249.28125 104.421875 249.347656 105.1875 249.390625 C 105.953125 249.433594 106.71875 249.457031 107.484375 249.457031 C 108.25 249.457031 109.015625 249.4375 109.78125 249.398438 C 110.546875 249.355469 111.3125 249.296875 112.074219 249.214844 C 112.835938 249.128906 113.59375 249.027344 114.351562 248.902344 C 115.109375 248.777344 115.859375 248.632812 116.609375 248.46875 C 117.355469 248.304688 118.101562 248.117188 118.839844 247.910156 C 119.578125 247.703125 120.308594 247.476562 121.035156 247.230469 C 121.761719 246.984375 122.480469 246.71875 123.191406 246.433594 C 123.902344 246.148438 124.605469 245.84375 125.296875 245.519531 C 125.992188 245.195312 126.679688 244.851562 127.351562 244.488281 C 128.027344 244.125 128.695312 243.746094 129.347656 243.347656 C 130.003906 242.949219 130.648438 242.53125 131.277344 242.097656 C 131.910156 241.664062 132.53125 241.214844 133.136719 240.746094 C 133.746094 240.277344 134.339844 239.792969 134.917969 239.292969 C 135.5 238.792969 136.066406 238.277344 136.617188 237.746094 C 137.171875 237.214844 137.707031 236.667969 138.230469 236.109375 C 138.753906 235.546875 139.257812 234.972656 139.75 234.382812 C 140.242188 233.792969 140.714844 233.191406 141.171875 232.578125 C 141.632812 231.964844 142.070312 231.335938 142.496094 230.695312 C 142.917969 230.058594 143.324219 229.410156 143.710938 228.746094 C 144.097656 228.085938 144.46875 227.414062 144.820312 226.734375 C 145.171875 226.050781 145.503906 225.359375 145.816406 224.660156 C 146.128906 223.960938 146.421875 223.253906 146.695312 222.539062 C 146.96875 221.820312 147.222656 221.097656 147.457031 220.371094 C 147.691406 219.640625 147.90625 218.902344 148.101562 218.164062 C 148.296875 217.421875 148.46875 216.675781 148.621094 215.925781 C 148.773438 215.171875 148.90625 214.417969 149.019531 213.660156 C 149.132812 212.902344 149.222656 212.140625 149.292969 211.378906 C 149.363281 210.613281 149.410156 209.847656 149.4375 209.082031 C 149.46875 208.316406 149.472656 207.550781 149.460938 206.785156 C 149.445312 206.019531 149.410156 205.253906 149.355469 204.488281 C 149.296875 203.722656 149.222656 202.960938 149.125 202.203125 C 149.027344 201.441406 148.90625 200.683594 148.769531 199.929688 L 145.910156 184.472656 L 161.335938 187.5 C 163.882812 188 223.828125 200.609375 237.910156 276.792969 Z M 237.910156 276.792969 " fill-opacity="1" fill-rule="nonzero"/></g></g></g><g clip-path="url(#2429f6e8df)"><g clip-path="url(#70df003856)"><g clip-path="url(#a53a6173d4)"><path fill="#ffffff" d="M 219.632812 168.113281 C 233.3125 166.640625 245.199219 164.726562 254.769531 161.238281 L 254.761719 161.238281 C 260.769531 159.046875 265.863281 156.234375 269.910156 152.523438 L 269.914062 152.523438 C 269.921875 152.511719 269.933594 152.503906 269.941406 152.496094 C 270 152.441406 270.058594 152.386719 270.117188 152.332031 C 270.132812 152.320312 270.144531 152.304688 270.160156 152.292969 C 270.222656 152.230469 270.289062 152.171875 270.351562 152.113281 L 270.367188 152.097656 C 271.382812 151.128906 272.328125 150.105469 273.203125 149.015625 C 275.535156 146.113281 277.367188 142.753906 278.65625 138.851562 C 279.898438 135.097656 280.644531 130.847656 280.847656 126.011719 C 280.816406 123.898438 280.570312 121.890625 280.136719 120.003906 L 280.132812 120 C 276.429688 103.894531 258.925781 96.382812 242.335938 104.597656 L 242.328125 104.59375 C 240.765625 105.371094 239.207031 106.285156 237.671875 107.34375 C 238.351562 105.699219 238.894531 104.066406 239.3125 102.449219 L 239.308594 102.445312 C 244.453125 82.542969 230.472656 65.566406 211.058594 68.964844 C 210.796875 69.011719 210.535156 69.058594 210.273438 69.109375 C 210.179688 69.136719 210.082031 69.160156 209.988281 69.1875 L 209.941406 69.199219 C 209.875 69.214844 209.808594 69.234375 209.742188 69.253906 C 203.453125 70.957031 198.421875 73.40625 194.425781 76.539062 L 194.425781 76.542969 C 190.84375 79.351562 188.097656 82.714844 186.03125 86.601562 L 186.03125 86.597656 C 185.578125 87.449219 185.15625 88.332031 184.769531 89.234375 C 186.015625 87.566406 187.460938 86.054688 189.117188 84.691406 L 189.449219 84.417969 C 193.320312 81.335938 197.957031 79.308594 202.695312 77.921875 C 202.757812 77.902344 202.816406 77.886719 202.878906 77.867188 L 202.925781 77.855469 C 202.96875 77.839844 203.011719 77.828125 203.054688 77.816406 C 203.238281 77.777344 203.417969 77.742188 203.601562 77.707031 C 209.652344 76.523438 215.824219 77.621094 220.703125 81.601562 C 223.832031 84.152344 226.050781 87.59375 227.269531 91.410156 C 228.703125 95.886719 228.714844 100.648438 227.691406 105.179688 L 227.574219 105.699219 C 227.257812 107 226.859375 108.277344 226.386719 109.527344 L 220.890625 124.074219 L 233.480469 114.949219 C 234.589844 114.144531 235.746094 113.40625 236.949219 112.75 L 237.523438 112.449219 C 241.605469 110.320312 246.164062 109.117188 250.8125 109.339844 C 254.785156 109.53125 258.652344 110.765625 261.914062 113.097656 C 265.703125 115.804688 268.265625 119.734375 269.445312 124.199219 L 269.542969 124.574219 C 269.914062 126.070312 270.128906 127.59375 270.207031 129.128906 C 270.160156 132.949219 269.730469 136.808594 268.667969 140.476562 L 268.605469 140.675781 C 267.648438 143.890625 266.210938 146.871094 264.179688 149.539062 L 264.042969 149.722656 C 263.355469 150.605469 262.613281 151.441406 261.824219 152.234375 L 261.804688 152.25 C 261.753906 152.300781 261.703125 152.351562 261.652344 152.402344 C 261.640625 152.414062 261.628906 152.425781 261.617188 152.4375 C 261.566406 152.484375 261.519531 152.535156 261.46875 152.582031 C 261.46875 152.582031 261.46875 152.582031 261.464844 152.585938 L 261.445312 152.605469 C 257.648438 156.257812 252.867188 158.800781 247.972656 160.699219 L 247.359375 160.933594 C 242.628906 162.714844 237.644531 163.988281 232.695312 165.015625 C 226.484375 166.300781 220.175781 167.226562 213.878906 168.027344 L 212.925781 168.152344 C 204.046875 169.265625 195.132812 170.160156 186.226562 171.101562 L 186.234375 171.144531 C 198.222656 170.066406 209.425781 169.210938 219.632812 168.113281 Z M 219.632812 168.113281 " fill-opacity="1" fill-rule="nonzero"/></g></g></g></g></g></svg>